<svg xmlns="http://www.w3.org/2000/svg" width="70.997" height="79.683"><defs><clipPath id="a"><path fill="none" d="M0 0h70.997v79.683H0z" data-name="Rectangle 5"/></clipPath></defs><g clip-path="url(#a)" data-name="Group 4"><path fill="#d3ceb4" d="M14.269 47.454c.109-1.35.237-2.581.287-3.819a1.43 1.43 0 0 0-.372-.952c-.82-.856-1.705-1.646-2.555-2.479a1.321 1.321 0 0 1-.22-1.975c.6-.964 1.195-1.936 1.837-2.874a1.221 1.221 0 0 0 .165-1.234c-.4-1.09-.751-2.2-1.11-3.3a1.321 1.321 0 0 1 .7-1.857c1.027-.6 2.074-1.155 3.078-1.791a1.427 1.427 0 0 0 .57-.833c.234-1.112.392-2.238.57-3.361s.488-1.422 1.653-1.478c1.109-.056 2.226-.049 3.332-.151a1.674 1.674 0 0 0 1.03-.527c.757-.912 1.433-1.89 2.153-2.835a1.31 1.31 0 0 1 1.88-.448c1.1.513 2.176 1.064 3.289 1.541a1.326 1.326 0 0 0 .942 0c1.047-.448 2.061-.962 3.088-1.449 1.1-.524 1.5-.425 2.216.527.652.872 1.327 1.725 1.942 2.624a1.3 1.3 0 0 0 1.169.6c1.162.017 2.324.066 3.486.135.912.049 1.264.395 1.412 1.3.191 1.172.349 2.351.586 3.509a1.431 1.431 0 0 0 .573.833c1 .635 2.051 1.2 3.075 1.8a1.3 1.3 0 0 1 .708 1.85c-.366 1.129-.774 2.245-1.1 3.384a1.428 1.428 0 0 0 .105 1.01c.6 1.047 1.284 2.051 1.923 3.082a1.315 1.315 0 0 1-.247 1.916c-.849.826-1.735 1.62-2.558 2.476a1.436 1.436 0 0 0-.372.948c.04 1.136.165 2.269.257 3.4s-.148 1.524-1.238 1.844c-1.113.329-2.239.619-3.342.984a1.319 1.319 0 0 0-.708.625c-.513 1.103-.954 2.23-1.441 3.339a1.3 1.3 0 0 1-1.764.9c-1.185-.241-2.367-.5-3.562-.7a1.22 1.22 0 0 0-.856.214c-.962.737-1.88 1.528-2.825 2.288a1.339 1.339 0 0 1-1.989 0c-.942-.76-1.864-1.551-2.825-2.288a1.236 1.236 0 0 0-.856-.214c-1.218.207-2.423.481-3.635.724a1.274 1.274 0 0 1-1.662-.846c-.5-1.133-.948-2.285-1.475-3.4a1.324 1.324 0 0 0-.708-.629c-1.172-.382-2.37-.688-3.556-1.041a1.259 1.259 0 0 1-1.053-1.366" data-name="Path 35"/><path fill="#48484a" d="M70.799 10.602c-.563-3.536-2.667-7.157-6.641-7.414a18.926 18.926 0 0 0-2.163.007c-.244 7.892-.5 15.783-.718 23.678 0 .1-.013.184-.02.28a1.532 1.532 0 0 0-.718 1.186 107.353 107.353 0 0 0-.681 18.986c-.053.066-.108.128-.165.194-.043.951-.092 1.9-.155 2.851l.109-.135c0 6.166.046 12.171-.017 18.176-.06 5.679-2.035 7.529-7.786 7.286-14.351-.606-28.656-2-43.023-2.288a4.339 4.339 0 0 0 1.037.418q13.368 1.625 26.736 3.256 6.756.814 13.511 1.613 3.309.39 6.621.77c1.863.214 3.875.536 5.557-.533a5.881 5.881 0 0 0 2.143-2.736 26.026 26.026 0 0 0 1.6-7.144c1.775-15.088 2.282-30.285 3.971-45.38.451-4.043 1.258-8.05.915-12.135a13.246 13.246 0 0 0-.115-.935" data-name="Path 36"/><path fill="#d3ceb4" d="M8.823 73.406c-1.287-.165-2.571-.379-3.862-.484-3.548-.283-5.356-2.43-4.888-5.978.605-4.614 1.274-9.214 1.916-13.821 1.126-.383 1.111-1.35 1.241-2.293Q6.054 29.361 8.916 7.897c.421-3.18 1.656-4.395 4.948-4.583 9.554-.54 19.111-1.014 28.668-1.528 1.077-.059 2.328.3 2.953-1.053C49.094.542 52.7.391 56.307.147 58.872-.024 60.847.78 62 3.193c-.244 7.895-.5 15.786-.718 23.678-.033 1.179-1.034 43.543-1.857 44.435-1.521 1.656-4.559-3.022-6.054-1.343.369-8.816 3.115-52.59 3.45-61.407.132-3.526-.468-4.138-4.056-3.983-12.194.523-24.382 1.132-36.576 1.64-2.568.105-3.677 1.35-3.941 3.793-.389 3.638-.919 7.259-1.383 10.887C9.041 35.13 7.2 49.359 5.422 63.602c-.457 3.677.3 4.445 4.086 4.649 3 .162 6 .286 9 .435l31.507 1.56c2.334.119 3.849-.873 4-3.305.221-3.464.312-6.937.461-10.407l5.166-6.3c0 6.163.046 12.172-.017 18.173-.059 5.682-2.034 7.529-7.786 7.286-14.351-.6-28.656-2-43.023-2.288" data-name="Path 37"/><path fill="#48484a" d="M45.487.735c-.629 1.35-1.877.994-2.953 1.05-9.557.513-19.115.987-28.672 1.531C10.569 3.5 9.338 4.719 8.913 7.9Q6.064 29.361 3.231 50.829c-.125.945-.118 1.91-1.241 2.292-1.274-1.449-.425-3.072-.234-4.553C3.504 35.083 5.371 21.611 7.149 8.133c.6-4.56 2.239-6.364 6.808-6.624C23.61.952 33.269.528 42.925.07c.9-.043 1.91-.326 2.562.665" data-name="Path 38"/><path fill="#48484a" d="M31.046 38.074a11.718 11.718 0 0 0-.915-1.281 593.721 593.721 0 0 0-6.252-6.347c-1.159-1.156-2.166-1.146-3.335-.01q-1.19 1.16-2.327 2.374c-1.212 1.294-1.2 2.255.072 3.552 2.015 2.061 4.046 4.105 6.068 6.156 1.709 1.738 3.384 3.509 5.136 5.205s3.75 1.64 5-.224Q42.404 35.761 50.22 23.96a2.022 2.022 0 0 0-.606-3.108 66.945 66.945 0 0 0-2.96-2.028 2 2 0 0 0-3.177.629c-.83 1.2-1.623 2.43-2.436 3.645-3.246 4.862-6.493 9.722-10 14.976" data-name="Path 39"/></g></svg>