<svg xmlns="http://www.w3.org/2000/svg" width="111.083" height="81.859"><defs><clipPath id="a"><path fill="none" d="M0 0h111.083v81.859H0z" data-name="Rectangle 7"/></clipPath></defs><g clip-path="url(#a)" data-name="Group 8"><path fill="#d3ceb4" d="M55.456 0c-.656 0-2.051 1.363-2.579 1.761a32.688 32.688 0 0 0-2.388 1.99 33.329 33.329 0 0 0-4 4.415 50.663 50.663 0 0 0-5.771 10.092c-.857 1.912-1.693 3.87-2.385 5.842-.563 1.606-.932 3.274-1.359 4.921a4.521 4.521 0 0 1-1.313 2.633 5.524 5.524 0 0 1-2.295.735c-1 .212-2 .452-3 .682q-3.028.694-6.054 1.4c-4.024.936-8.051 1.868-12.09 2.726a5.265 5.265 0 0 1-.821.007c1.725-2.651 3.257-5.175 4.96-7.6 6.477-9.2 18.445-20.454 28.221-26.747C49.194-.107 52.02 0 55.456 0" data-name="Path 48"/><path fill="#d3ceb4" d="M105.258 39.499c-3.665-.954-3.579-.732-6.868-1.718-5.723-1.718-14.188-3.64-19.464-4.58-1.348-.237-1.811-.154-2.234-1.5a123.074 123.074 0 0 0-9.884-23.924c-1.7-3-7-4.246-9.063-7.205a48.212 48.212 0 0 1 12.6 2.292c8.213 3.278 12.6 7.367 18.514 13.726a119.919 119.919 0 0 1 15.662 21.328c.229.388.387.818.742 1.582" data-name="Path 49"/><path fill="#56595a" d="M67.806 55.103c2.367.172 4.437.376 6.51.448 1.044.036 1.373.545 1.452 1.453.33 3.816.66 7.629 1.015 11.444.072.768-.294 1.919 1.087 1.862 1.341-.057 1.4-1.087 1.312-2.1-.355-4.017-.728-8.03-1.115-12.276 2.145.248 4.246.452 6.326.775.294.047.681.635.721 1.008.7 6.18 1.463 12.355 1.976 18.553.269 3.278-1.3 4.688-4.548 4.656q-10.076-.1-20.145-.223c-3.146-.039-5.179-1.653-5.251-4.791-.165-6.965-.054-13.934-.054-20.938h8.041c.144 2.375.288 4.591.409 6.811.1 1.966.172 3.935.279 5.9.093 1.711.524 2.076 2.758 2.134l-.775-14.715" data-name="Path 50"/><path fill="#55595a" d="M98.438 37.844c-3.385-.89-6.437-1.808-9.54-2.475-4.842-1.04-9.712-1.955-14.586-2.826a2.484 2.484 0 0 1-2.263-1.955A115.116 115.116 0 0 0 62.918 8.32c-1.571-2.794-3.622-5.322-5.527-8.073a20 20 0 0 1 6.653 1.467c7.585 3.056 13.772 8.887 19.241 14.805a111.637 111.637 0 0 1 14.469 19.854c.212.358.355.76.685 1.47" data-name="Path 51"/><path fill="#56595a" d="M50.699.347c-9.257 6.043-12.919 15.5-16.465 25-.782 2.091-1.277 4.286-2.009 6.395a2.04 2.04 0 0 1-1.169 1.2c-7.048 1.656-14.116 3.237-21.178 4.833a5.253 5.253 0 0 1-.771 0c1.628-2.651 3.073-5.175 4.68-7.6C19.902 20.98 26.91 12.588 36.14 6.298A35.309 35.309 0 0 1 50.699.347" data-name="Path 52"/><path fill="#56595a" d="M32.063 80.971c-3.052 0-5.864.036-8.672-.043-.363-.011-.861-.538-1.033-.94-.757-1.757-1.417-3.554-2.109-5.337l-.6-1.513c-.132.029-.265.057-.4.089-.158 2.564-.316 5.133-.488 7.865h-6.6c.122-2.209.125-4.533.409-6.818.588-4.752 1.341-9.486 1.99-14.231.154-1.13.549-1.822 1.837-1.915a33.067 33.067 0 0 0 3.615-.631c2.012-.376 2.658 0 3.324 1.962a4.7 4.7 0 0 0 1.044 1.93c.416-1.162.9-2.306 1.223-3.493a1.861 1.861 0 0 1 1.909-1.537c1.955-.151 3.9-.395 5.961-.614-1.428 4.3-2.694 8.518-4.239 12.628a7.71 7.71 0 0 0 .384 6.962c.94 1.692 1.564 3.565 2.446 5.634" data-name="Path 53"/><path fill="#56595a" d="M34.548 65.204c.29-2.83.556-5.792.94-8.737a1.521 1.521 0 0 1 1.1-.954c4.523-.28 9.049-.534 13.578-.664a3.865 3.865 0 0 1 4.185 3.909c.05 7.137 0 14.278-.018 21.415 0 .1-.072.19-.169.416h-9.96c0-2.349-.014-4.673 0-7 .011-2.131.025-4.264.1-6.395.047-1.417-.541-2.041-1.99-2.008-2.5.054-4.992.014-7.765.014" data-name="Path 54"/><path fill="#56595a" d="M22.39 52.258c.563-2 1.087-4.117 1.79-6.165.147-.43.928-.821 1.47-.911 3.522-.574 7.058-1.055 10.588-1.574.348-.05.684-.154 1.309-.3-3.44-1.815-6.628-3.5-9.813-5.183v-.481c3.368-.516 6.728-1.061 10.106-1.517.466-.061.983.4 1.5.484a2.9 2.9 0 0 0 1.309-.125 17.7 17.7 0 0 1 3.049-1.08c2.428-.3 4.885-.373 7.747-.566-2.084 1.775-3.874 3.3-5.846 4.971 1.187.678 2.174 1.266 3.178 1.811a2.91 2.91 0 0 1 1.74 3.1c-.179 1.686-.199 3.386-.279 4.936-9.339.871-18.538 1.732-27.849 2.6" data-name="Path 55"/><path fill="#56595a" d="m98.137 71.186 5.7.671c.441-2.407-.043-3.113-2.249-3.529-1.295-.244-3-.118-3.762-.9s-.606-2.493-.861-3.794c-.308-1.557-.627-3.106-1.029-5.086a80.8 80.8 0 0 1 9.217 2.64c1.065.434 1.872 2.141 2.259 3.429a66.719 66.719 0 0 1 1.366 6.883c.068.355.133.975.294 1.008 1.625.33 1.388 1.707 1.514 2.758.247 2.105.33 4.232.495 6.585-.628 0-1.137.018-1.639 0-3.142-.122-6.28-.3-9.421-.362-1.091-.022-1.309-.463-1.348-1.438-.119-2.869-.341-5.735-.538-8.862" data-name="Path 56"/><path fill="#56595a" d="M81.574 37.491c4.01 1.194 8.023 2.382 12.029 3.594.861.262 1.693.634 2.55.925a8.857 8.857 0 0 1 5.67 5.021c1.037 2.446 2.192 4.845 3.185 7.309a2.193 2.193 0 0 1-.079 1.887c-.323.355-1.23.172-1.88.222a.3.3 0 0 1-.15-.05c-1.765-.965-4.372-.283-5.48-2.32a33.687 33.687 0 0 1-1.941-5.57 9.78 9.78 0 0 0 .793-1.36c-.983-.775-2.037-1.46-3.077-2.163-.154.15-.308.3-.463.448l3.013 8.895c-2.938-.6-5.663-1.137-8.364-1.757-.269-.061-.495-.631-.6-1.008-.57-1.937-1.04-3.906-1.664-5.824a7.186 7.186 0 0 0-1.815-3.171c-1.1-1.087-1.345-3.041-1.962-4.616l.237-.463" data-name="Path 57"/><path fill="#56595a" d="M0 69.882c1-3.942 1.868-7.492 2.833-11.014.1-.387.71-.728 1.158-.911 1.026-.427 2.1-.742 3.346-1.166-.258 1.2-.48 2.234-.76 3.547 1.284-.3 2.3-.556 3.31-.785 1.883-.426 2.683.14 2.511 2.08-.194 2.22-.685 4.412-.961 6.628-.345 2.744-.574 5.5-.908 8.249a16.485 16.485 0 0 1-.617 2.955 2.741 2.741 0 0 1-2.883 2.058c-1.85-.021-3.7 0-5.839 0 .237-2.694.463-5.538.764-8.375.029-.276.5-.6.836-.725.541-.2 1.37-.071 1.661-.423A9.306 9.306 0 0 0 5.5 69.714a4.808 4.808 0 0 0-1.7-.566 32.786 32.786 0 0 0-3.8.739" data-name="Path 58"/><path fill="#56595a" d="M54.778 49.997V34.952c3.188-.007 6.323-.37 9.332.728a2.877 2.877 0 0 1 1.707 1.689c.739 4.181 1.284 8.4 1.9 12.628Z" data-name="Path 59"/><path fill="#56595a" d="M10.478 55.25c1.069-2.988 2.055-5.738 3.041-8.486-.108-.136-.215-.272-.323-.405-1.987.728-3.97 1.46-6.158 2.263 1.266-2.865 2.306-5.491 5.67-6.308 2.622-.635 5.129-1.747 7.693-2.618a6.109 6.109 0 0 1 1.557-.32c1.639-.107 1.847.269 1.295 1.826-1.277 3.6-2.543 7.212-3.691 10.86a1.742 1.742 0 0 1-1.571 1.427c-2.4.477-4.763 1.1-7.514 1.761" data-name="Path 60"/><path fill="#56595a" d="M96.15 70.626c-2.345-.222-4.361-.373-6.362-.639a1.415 1.415 0 0 1-.968-.886c-.559-3.934-1.04-7.879-1.553-11.932 2.808.33 5.788.219 7.108 3.464a15.046 15.046 0 0 1 .821 3.228c.362 2.22.635 4.458.954 6.764" data-name="Path 61"/><path fill="#56595a" d="M68.533 35.435c2.762.506 5.38.879 7.944 1.488a4.187 4.187 0 0 1 3.131 3.124c.383 1.367.86 2.7 1.341 4.2-3.5-.449-6.818-.847-10.121-1.335a1.49 1.49 0 0 1-.979-.936c-.48-2.059-.846-4.143-1.316-6.538" data-name="Path 62"/></g></svg>