<svg xmlns="http://www.w3.org/2000/svg" width="95.964" height="102.998" data-name="Group 11"><defs><clipPath id="a"><path fill="#56595a" d="M0 0h95.964v102.998H0z" data-name="Rectangle 8"/></clipPath></defs><g clip-path="url(#a)" data-name="Group 10"><path fill="#56595a" d="M15.712 42.27a35.894 35.894 0 0 1-5.1-1.922 28.376 28.376 0 0 1-6.528-4.189 34.814 34.814 0 0 1-3.009-2.969c-.621-.688-1.659-1.559-.659-2.332a4.43 4.43 0 0 1 2.535-.6c2.98 0 5.971-.265 8.966-.3 4.374-.05 8.824-.077 13.023 1.25a19.17 19.17 0 0 1 9.436 6.155q.179.223.347.457a13.152 13.152 0 0 1 1.536 2.728c.39.942 1.257 2.395-.293 2.668a44.961 44.961 0 0 1-20.254-.943" data-name="Path 63"/><path fill="#d3ceb4" d="M56.512 54.22c.889 1.67 1.8 3.315 2.721 4.935.936 1.66 1.919 3.29 2.916 4.91-.282-.478-.568-.953-.838-1.435a246.106 246.106 0 0 1-2.721-4.935A88.81 88.81 0 0 0 68.69 5.55a2.425 2.425 0 0 0-1.939-2 88.88 88.88 0 0 1-10.244 50.674" data-name="Path 64"/><path fill="#d3ceb4" d="M94.273 49.88a34.028 34.028 0 0 0 1.691-9.579 3.9 3.9 0 0 0-2.088-3.631c0 .054.011.1.01.156a34.146 34.146 0 0 1-1.691 9.579 45.118 45.118 0 0 1-23.557 27.568 264.715 264.715 0 0 0 2.375 3.327 45.136 45.136 0 0 0 23.26-27.42" data-name="Path 65"/><path fill="#d3ceb4" d="M81.438 98.637c-5.786-6.923-11.4-13.99-16.589-21.379q-1.464-2.093-2.874-4.222c-6.553 2.35-13.547 3.982-20.516 3.087a25.482 25.482 0 0 1-16.693-8.862 1.819 1.819 0 0 0 .245.866c3.961 6.635 10.959 10.5 18.526 11.471 6.969.9 13.967-.734 20.516-3.087.947 1.417 1.9 2.827 2.878 4.222 5.18 7.389 10.8 14.456 16.585 21.379 2.065 2.468 5.9-.747 3.828-3.218q-.755-.9-1.5-1.809c-.122 1.941-2.8 3.477-4.4 1.552" data-name="Path 66"/><path fill="#56595a" d="M70.451 51.642a35.474 35.474 0 0 1 17.013-13.863c1.569-.6 3.619-1.553 5.346-1.406a3.289 3.289 0 0 1 1.065.295 3.629 3.629 0 0 0-3.142-3.77c-1.727-.147-3.781.8-5.347 1.406a35.455 35.455 0 0 0-17.013 13.868 35.821 35.821 0 0 0-5.48 17.11c-.253-.406-.5-.812-.745-1.217q1.377 2.37 2.822 4.692a35.823 35.823 0 0 1 5.48-17.11" data-name="Path 67"/><path fill="#56595a" d="M26.24 64.812c9.064-3.708 19.184-6.695 28.592-3.657-.163-.308-.339-.609-.5-.917-3.291-6.3-6.5-12.989-7.563-20.079a34.747 34.747 0 0 1 3.627-20.425c3.27-6.687 7.988-12.7 14.8-16.035a2.355 2.355 0 0 1 1.564-.154c-.046-.489-.082-.981-.136-1.47A2.524 2.524 0 0 0 63.107.224c-6.8 3.331-11.522 9.347-14.792 16.035a34.74 34.74 0 0 0-3.627 20.425c1.06 7.091 4.272 13.783 7.563 20.08.159.308.336.609.5.917-9.407-3.038-19.531-.051-28.592 3.656a2.512 2.512 0 0 0-1.231 3.316 22.722 22.722 0 0 0 1.833 2.609 2.632 2.632 0 0 1 1.476-2.45" data-name="Path 68"/><path fill="#48484a" d="M85.842 97.085a2.318 2.318 0 0 0-.577-1.666c-4.925-5.89-9.734-11.9-14.253-18.121-.1.05-.2.1-.294.151 4.736 6.77 9.855 13.275 15.124 19.636" data-name="Path 69"/><path fill="#56595a" d="M73.023 50.196a30.931 30.931 0 0 1 7.845-7.885 29.942 29.942 0 0 1 4.848-2.728 31.132 31.132 0 0 1 3.116-1.271c-.069.344-.142.659-.167.869-.121.927-.27 1.854-.463 2.77a37.921 37.921 0 0 1-1.526 5.216 40.393 40.393 0 0 1-5.048 9.539 39.474 39.474 0 0 1-13.832 12.092 30.67 30.67 0 0 1 5.225-18.6m-30.207 21.04c-5.062-.466-10.324-2.6-13.727-6.483 8.064-3.076 17.4-5.451 25.308-1.017a2.919 2.919 0 0 0 1.962.35q1.383 2.341 2.839 4.65c-5.272 1.8-10.8 3.018-16.382 2.5m10.954-22.534a58.4 58.4 0 0 1-3.166-8.357 28.791 28.791 0 0 1 .745-18.539c2.176-5.77 5.634-11.45 10.671-15.109a83.284 83.284 0 0 1-8.25 42m38.424-2.3a34.028 34.028 0 0 0 1.691-9.579c0-.054-.007-.1-.011-.156a3.207 3.207 0 0 0-1.064-.291c-1.727-.147-3.778.8-5.346 1.4A35.092 35.092 0 0 0 64.97 68.755q-1.447-2.321-2.822-4.689c-1-1.619-1.981-3.25-2.916-4.91a234.89 234.89 0 0 1-2.721-4.935A88.839 88.839 0 0 0 66.754 3.544a2.388 2.388 0 0 0-1.568.157c-6.8 3.328-11.522 9.344-14.792 16.032a34.746 34.746 0 0 0-3.626 20.425c1.06 7.095 4.272 13.786 7.563 20.079.159.311.336.612.5.92-9.407-3.038-19.532-.051-28.592 3.653a2.634 2.634 0 0 0-1.476 2.45 25.467 25.467 0 0 0 16.693 8.862c6.969.895 13.963-.734 20.516-3.083a228.69 228.69 0 0 0 2.878 4.218c5.18 7.389 10.8 14.46 16.585 21.379 1.612 1.928 4.283.392 4.4-1.552-5.268-6.357-10.388-12.866-15.124-19.635.1-.047.2-.1.294-.148-.8-1.105-1.594-2.211-2.375-3.327a45.121 45.121 0 0 0 23.566-27.569" data-name="Path 70"/></g></svg>