<svg xmlns="http://www.w3.org/2000/svg" width="98" height="87.455" data-name="Group 7"><defs><clipPath id="a"><path fill="none" d="M0 0h98v87.455H0z" data-name="Rectangle 6"/></clipPath></defs><g clip-path="url(#a)" data-name="Group 6"><path fill="#1a1718" d="M56.999 40.574c.646 1.678 1.058 2.743 1.557 4.046h-3.075c.492-1.306.9-2.386 1.518-4.046" data-name="Path 40"/><path fill="#d3ceb4" d="M84.189 6.459C78.045 1.911 68.46-.453 61.051.379a18.322 18.322 0 0 0-9.284 3.48c-2.839 1.912-5.425 5.728-8.122 8.121-.255 5.086.161 8.957-.281 14.028-1.11 12.751-2.263 25.492-3.383 38.239-.266 3.035-.5 6.075-.678 9.117a1.467 1.467 0 0 1 2.251 1.135c.124 1.755.193 3.51.248 5.265.142 2 .288 4.006.339 6.005.186.1.369.2.551.3.533.292.394 1.664.956 1.332 6.4-3.794 13.389-6.027 20.219-8.84 16.37-6.749 29.752-19.855 33.288-37.64.236-1.2.431-2.4.573-3.608a34.385 34.385 0 0 0-.635-12.259 33.97 33.97 0 0 0-12.9-18.6" data-name="Path 41"/><path fill="#56595a" d="M43.1 11.756c2.6-2.7 4.834-5.52 7.49-7.687C58.24-2.174 68.8-1.1 76.825 6.615c9.464 9.1 11.3 20.807 8.654 33.85-2.5 12.309-9.033 21.671-17.888 28.855C60.1 75.4 52.122 80.717 44.325 86.314a1.905 1.905 0 0 1-1.828.149c-11.051-7.417-22.543-14.2-31.372-25.082C2.428 50.658-1.688 38.111.643 23.529c2.3-14.4 15.137-25.265 27.2-23.3 5.841.952 10.073 4.907 13.794 9.734.456.587.912 1.175 1.375 1.755.041.055.139.051.091.036" data-name="Path 42"/><path fill="#fff" d="M12.923 34.818h2.444l2.853 9.756 2.857-9.756h2.463l-3.776 11.707h-3.083Z" data-name="Path 43"/><path fill="#fff" d="M25.841 34.818h7.187v1.786h-4.929v3.1h4.725v1.7h-4.725v3.328h4.929v1.788h-7.187Z" data-name="Path 44"/><path fill="#fff" d="M34.651 40.856c0-4.272 2.587-6.18 6.2-6.18a8.392 8.392 0 0 1 3.287.635v1.806a9.119 9.119 0 0 0-3.309-.594c-2.382 0-3.82 1.317-3.82 4.086 0 2.857 1.255 4.21 3.638 4.21a4.583 4.583 0 0 0 1.416-.182v-2.773h-2.072v-1.643h4.272v5.524a8.354 8.354 0 0 1-4.046.861c-3.309 0-5.567-1.952-5.567-5.75" data-name="Path 45"/><path fill="#fff" d="m53.401 42.191-1.664-5.732-1.7 5.732Zm-3.305-7.373h3.265l3.678 11.708h-2.36l-.781-2.671h-4.331l-.8 2.671h-2.349Z" data-name="Path 46"/><path fill="#fff" d="M59.336 34.818h1.97l6 8.545-.2-2.649v-5.9h2.066v11.711h-1.97l-6-8.4.208 2.444v5.958h-2.076Z" data-name="Path 47"/></g></svg>